<svg width="24" height="24" viewBox="0 0 24 24" fill="none" xmlns="http://www.w3.org/2000/svg">
<path d="M21 4C21 3.522 20.621 3 20 3H4C3.38 3 3 3.519 3 4V20C3 20.621 3.52 21 4 21H20C20.478 21 21 20.621 21 20V4ZM4.5 4.5H19.5V19.5H4.5V4.5ZM17 15.25C17 14.836 16.664 14.5 16.25 14.5H7.75C7.336 14.5 7 14.836 7 15.25C7 15.664 7.336 16 7.75 16H16.25C16.664 16 17 15.664 17 15.25ZM17 12.002C17 11.588 16.664 11.252 16.25 11.252H7.75C7.336 11.252 7 11.588 7 12.002C7 12.416 7.336 12.752 7.75 12.752H16.25C16.664 12.752 17 12.416 17 12.002ZM17 8.75C17 8.336 16.664 8 16.25 8H7.75C7.336 8 7 8.336 7 8.75C7 9.164 7.336 9.5 7.75 9.5H16.25C16.664 9.5 17 9.164 17 8.75Z" fill="currentColor"/>
</svg>
