<svg width="24" height="24" viewBox="0 0 24 24" fill="none" xmlns="http://www.w3.org/2000/svg">
<path d="M10.4531 1.00974C10.3811 1.01042 10.3057 1.01297 10.2324 1.0156H9.88475C9.65696 1.04218 9.47183 1.17478 9.41796 1.35154L9.39257 3.06638V5.10154C9.40462 5.46547 9.86549 5.59639 10.2187 5.58982C10.5298 5.58408 10.9724 5.40896 10.9824 5.14841C10.9889 4.97721 10.9998 4.92905 11.0137 4.01951L11 2.80271C11.0065 2.63923 11.1897 2.45477 11.3691 2.45115C11.4022 2.45048 20.998 2.39255 20.998 2.39255C21.2184 2.43152 21.3713 2.61483 21.4043 2.81248L21.4473 11.998V12V12.002L21.4043 21.1875C21.3713 21.3852 21.2184 21.5685 20.998 21.6074C20.998 21.6074 11.4022 21.5495 11.3691 21.5489C11.1897 21.5452 11.0065 21.3607 11 21.1972L11.0137 19.9804C10.9998 19.0709 10.9889 19.0227 10.9824 18.8515C10.9724 18.591 10.5298 18.4158 10.2187 18.4101C9.86548 18.4035 9.40462 18.5345 9.39256 18.8984V20.9336L9.41795 22.6484C9.47183 22.8252 9.65696 22.9578 9.88475 22.9844H10.2324C10.3057 22.9871 10.3811 22.9896 10.4531 22.9903C10.6691 22.9923 10.7709 22.9872 10.8555 22.9844H13.623V22.9824H22.5137C22.7414 22.9558 22.9267 22.8229 22.9805 22.6464L22.9824 12L22.9805 1.35349C22.9267 1.17702 22.7414 1.04413 22.5137 1.01755H13.623V1.0156H10.8555C10.7709 1.01278 10.6691 1.00771 10.4531 1.00974ZM9.85741 8.69529C9.67762 8.69575 9.50046 8.75736 9.35546 8.87498C9.31404 8.90858 9.27343 8.94541 9.23827 8.98826C8.95762 9.33188 9.00817 9.84088 9.35155 10.123L10.8359 11.0254C10.2111 11.0305 9.57716 11.029 9.21678 11.0156C9.18078 11.014 2.44725 11.0019 2.44725 11.0019C2.44725 11.0019 2.21876 10.9911 1.95702 10.9941C1.86977 10.9951 1.7792 10.9966 1.69139 11.0019C1.37177 11.0209 1.19015 11.506 1.19725 11.8261C1.20346 12.108 1.38228 12.5222 1.66405 12.5312C1.98719 12.5416 6.11025 12.5189 7.77342 12.5273C9.43659 12.5357 10.1447 12.5188 10.8476 12.5468L9.24608 13.9921C8.96481 14.3349 9.01465 14.8417 9.35741 15.123C9.70103 15.4036 10.205 15.3525 10.4863 15.0097L13.2637 12.2851C13.5449 11.9424 13.497 11.4336 13.1543 11.1523L10.3691 8.87693C10.2192 8.75387 10.0372 8.69483 9.85741 8.69529Z" fill="currentColor"/>
</svg>
